<svg width="539" height="128" viewBox="0 0 539 128" fill="none" xmlns="http://www.w3.org/2000/svg">
<path d="M23.6875 111H6.5V17.4375H23.6875V111Z" fill="#54669C"/>
<path d="M56.875 25.875C56.875 27.4583 56.5625 28.9375 55.9375 30.3125C55.3542 31.6875 54.5417 32.8958 53.5 33.9375C52.4583 34.9375 51.2292 35.75 49.8125 36.375C48.4375 36.9583 46.9583 37.25 45.375 37.25C43.7917 37.25 42.2917 36.9583 40.875 36.375C39.5 35.75 38.2917 34.9375 37.25 33.9375C36.25 32.8958 35.4375 31.6875 34.8125 30.3125C34.2292 28.9375 33.9375 27.4583 33.9375 25.875C33.9375 24.3333 34.2292 22.875 34.8125 21.5C35.4375 20.0833 36.25 18.875 37.25 17.875C38.2917 16.8333 39.5 16.0208 40.875 15.4375C42.2917 14.8125 43.7917 14.5 45.375 14.5C46.9583 14.5 48.4375 14.8125 49.8125 15.4375C51.2292 16.0208 52.4583 16.8333 53.5 17.875C54.5417 18.875 55.3542 20.0833 55.9375 21.5C56.5625 22.875 56.875 24.3333 56.875 25.875ZM53.9375 111H36.75V44.0625H53.9375V111Z" fill="#A54A5E"/>
<path d="M84.0625 111H67V17.4375H84.0625V47C86.1042 45.4583 88.2083 44.375 90.375 43.75C92.5417 43.0833 94.75 42.75 97 42.75C101.125 42.75 105 43.5417 108.625 45.125C112.25 46.6667 115.396 48.8125 118.062 51.5625C120.771 54.2708 122.896 57.4583 124.438 61.125C126.021 64.75 126.812 68.625 126.812 72.75V111H109.625V72.75H109.75C109.75 71 109.417 69.3542 108.75 67.8125C108.083 66.2292 107.167 64.8542 106 63.6875C104.833 62.5208 103.479 61.6042 101.938 60.9375C100.396 60.2708 98.75 59.9375 97 59.9375C95.2083 59.9375 93.5208 60.2708 91.9375 60.9375C90.3542 61.6042 88.9792 62.5208 87.8125 63.6875C86.6458 64.8542 85.7292 66.2292 85.0625 67.8125C84.3958 69.3542 84.0625 71 84.0625 72.75V111Z" fill="#E84311"/>
<path d="M206 76.9375C206 82.1875 205.104 86.9792 203.312 91.3125C201.521 95.6458 199.083 99.375 196 102.5C192.917 105.583 189.292 107.979 185.125 109.688C181 111.396 176.562 112.25 171.812 112.25C167.104 112.25 162.667 111.375 158.5 109.625C154.375 107.875 150.75 105.438 147.625 102.312C144.542 99.1875 142.104 95.4792 140.312 91.1875C138.521 86.8542 137.625 82.1042 137.625 76.9375V17.4375H154.75V48.6875C155.667 47.5208 156.771 46.4792 158.062 45.5625C159.396 44.6458 160.812 43.8958 162.312 43.3125C163.854 42.7292 165.438 42.2917 167.062 42C168.688 41.6667 170.271 41.5 171.812 41.5C176.562 41.5 181 42.3958 185.125 44.1875C189.292 45.9375 192.917 48.3958 196 51.5625C199.083 54.7292 201.521 58.4792 203.312 62.8125C205.104 67.1042 206 71.8125 206 76.9375ZM188.812 76.9375C188.812 74.3542 188.354 71.9583 187.438 69.75C186.562 67.5 185.354 65.5625 183.812 63.9375C182.271 62.3125 180.458 61.0417 178.375 60.125C176.333 59.2083 174.146 58.75 171.812 58.75C169.479 58.75 167.271 59.2708 165.188 60.3125C163.146 61.3125 161.354 62.6667 159.812 64.375C158.271 66.0417 157.062 67.9792 156.188 70.1875C155.312 72.3542 154.875 74.6042 154.875 76.9375C154.875 79.5208 155.312 81.9167 156.188 84.125C157.062 86.3333 158.271 88.25 159.812 89.875C161.354 91.5 163.146 92.7917 165.188 93.75C167.271 94.6667 169.479 95.125 171.812 95.125C174.146 95.125 176.333 94.6667 178.375 93.75C180.458 92.7917 182.271 91.5 183.812 89.875C185.354 88.25 186.562 86.3333 187.438 84.125C188.354 81.9167 188.812 79.5208 188.812 76.9375Z" fill="#F27502"/>
<path d="M232.562 111H215.5V44.0625H219.625L225.25 52C228 49.5 231.125 47.5833 234.625 46.25C238.125 44.875 241.75 44.1875 245.5 44.1875H260.562V61.1875H245.5C243.708 61.1875 242.021 61.5208 240.438 62.1875C238.854 62.8542 237.479 63.7708 236.312 64.9375C235.146 66.1042 234.229 67.4792 233.562 69.0625C232.896 70.6458 232.562 72.3333 232.562 74.125V111Z" fill="#759F53"/>
<path d="M284 111H265.562L302.688 21.375H321.125L284 111ZM392.438 76.9375C392.438 81.9375 391.542 86.6042 389.75 90.9375C387.958 95.2292 385.521 98.9583 382.438 102.125C379.354 105.25 375.729 107.729 371.562 109.562C367.438 111.354 363 112.25 358.25 112.25C353.542 112.25 349.104 111.354 344.938 109.562C340.812 107.729 337.188 105.25 334.062 102.125C330.979 98.9583 328.542 95.2292 326.75 90.9375C324.958 86.6042 324.062 81.9375 324.062 76.9375C324.062 71.8542 324.958 67.1458 326.75 62.8125C328.542 58.4792 330.979 54.75 334.062 51.625C337.188 48.4583 340.812 45.9792 344.938 44.1875C349.104 42.3958 353.542 41.5 358.25 41.5C363 41.5 367.438 42.3542 371.562 44.0625C375.729 45.7292 379.354 48.125 382.438 51.25C385.521 54.3333 387.958 58.0625 389.75 62.4375C391.542 66.7708 392.438 71.6042 392.438 76.9375ZM375.25 76.9375C375.25 74.1875 374.792 71.7083 373.875 69.5C373 67.25 371.792 65.3333 370.25 63.75C368.708 62.125 366.896 60.8958 364.812 60.0625C362.771 59.1875 360.583 58.75 358.25 58.75C355.917 58.75 353.708 59.1875 351.625 60.0625C349.583 60.8958 347.792 62.125 346.25 63.75C344.75 65.3333 343.562 67.25 342.688 69.5C341.812 71.7083 341.375 74.1875 341.375 76.9375C341.375 79.5208 341.812 81.9167 342.688 84.125C343.562 86.3333 344.75 88.25 346.25 89.875C347.792 91.5 349.583 92.7917 351.625 93.75C353.708 94.6667 355.917 95.125 358.25 95.125C360.583 95.125 362.771 94.6875 364.812 93.8125C366.896 92.9375 368.708 91.7083 370.25 90.125C371.792 88.5417 373 86.625 373.875 84.375C374.792 82.125 375.25 79.6458 375.25 76.9375ZM468.875 76.9375C468.875 82.1875 467.979 86.9792 466.188 91.3125C464.396 95.6458 461.958 99.375 458.875 102.5C455.792 105.583 452.167 107.979 448 109.688C443.875 111.396 439.438 112.25 434.688 112.25C429.979 112.25 425.542 111.375 421.375 109.625C417.25 107.875 413.625 105.438 410.5 102.312C407.417 99.1875 404.979 95.4792 403.188 91.1875C401.396 86.8542 400.5 82.1042 400.5 76.9375V17.4375H417.625V48.6875C418.542 47.5208 419.646 46.4792 420.938 45.5625C422.271 44.6458 423.688 43.8958 425.188 43.3125C426.729 42.7292 428.312 42.2917 429.938 42C431.562 41.6667 433.146 41.5 434.688 41.5C439.438 41.5 443.875 42.3958 448 44.1875C452.167 45.9375 455.792 48.3958 458.875 51.5625C461.958 54.7292 464.396 58.4792 466.188 62.8125C467.979 67.1042 468.875 71.8125 468.875 76.9375ZM451.688 76.9375C451.688 74.3542 451.229 71.9583 450.312 69.75C449.438 67.5 448.229 65.5625 446.688 63.9375C445.146 62.3125 443.333 61.0417 441.25 60.125C439.208 59.2083 437.021 58.75 434.688 58.75C432.354 58.75 430.146 59.2708 428.062 60.3125C426.021 61.3125 424.229 62.6667 422.688 64.375C421.146 66.0417 419.938 67.9792 419.062 70.1875C418.188 72.3542 417.75 74.6042 417.75 76.9375C417.75 79.5208 418.188 81.9167 419.062 84.125C419.938 86.3333 421.146 88.25 422.688 89.875C424.229 91.5 426.021 92.7917 428.062 93.75C430.146 94.6667 432.354 95.125 434.688 95.125C437.021 95.125 439.208 94.6667 441.25 93.75C443.333 92.7917 445.146 91.5 446.688 89.875C448.229 88.25 449.438 86.3333 450.312 84.125C451.229 81.9167 451.688 79.5208 451.688 76.9375ZM515.125 111H476.125V94H515.125C516.292 94 517.292 93.5833 518.125 92.75C518.958 91.9167 519.375 90.9167 519.375 89.75C519.375 88.5417 518.958 87.75 518.125 87.375C517.292 87 516.292 86.8125 515.125 86.8125H497.375C494.417 86.8125 491.646 86.25 489.062 85.125C486.479 84 484.229 82.4792 482.312 80.5625C480.396 78.6042 478.875 76.3333 477.75 73.75C476.667 71.1667 476.125 68.3958 476.125 65.4375C476.125 62.4792 476.667 59.7083 477.75 57.125C478.875 54.5417 480.396 52.2917 482.312 50.375C484.229 48.4583 486.479 46.9583 489.062 45.875C491.646 44.75 494.417 44.1875 497.375 44.1875H531.938V61.1875H497.375C496.208 61.1875 495.208 61.6042 494.375 62.4375C493.542 63.2708 493.125 64.2708 493.125 65.4375C493.125 66.6458 493.542 67.6875 494.375 68.5625C495.208 69.3958 496.208 69.8125 497.375 69.8125H515.125C518.042 69.8125 520.792 70.3125 523.375 71.3125C525.958 72.2708 528.208 73.625 530.125 75.375C532.042 77.125 533.562 79.2292 534.688 81.6875C535.812 84.1458 536.375 86.8333 536.375 89.75C536.375 92.7083 535.812 95.4792 534.688 98.0625C533.562 100.604 532.042 102.854 530.125 104.812C528.208 106.729 525.958 108.25 523.375 109.375C520.792 110.458 518.042 111 515.125 111Z" fill="#FFF7F7"/>
</svg>
