<svg width="1018" height="1018" viewBox="0 0 1018 1018" fill="none" xmlns="http://www.w3.org/2000/svg">
<g clip-path="url(#clip0)">
<path d="M347.281 989.638C438.647 1021.91 531.881 1026.5 625.687 1004.14C863.187 947.52 1025.98 736.088 1017.7 497.012C1009.21 251.792 833.812 49.9538 592.471 7.67738C253.584 -51.6864 -46.406 242.093 5.97571 582.059C6.42112 584.187 6.98791 586.288 7.67334 588.352C8.27442 584.674 9.49538 580.977 9.3845 577.32C7.23288 512.011 18.3803 446.946 42.1527 386.057C57.6435 345.99 83.097 312.94 103.936 276.661C105.568 272.117 107.201 267.575 108.835 263.034C109.638 261.901 110.441 260.769 111.243 259.636L111.399 259.44C112.122 257.891 112.844 256.343 113.566 254.794C114.692 253.297 115.861 251.83 116.937 250.298C224.049 97.7364 371.235 24.8507 556.751 44.1916C737.778 63.0645 867.614 161.4 940.137 327.502C1040.4 557.14 940.074 826.711 706.699 934.786C703.329 936.048 699.953 937.313 696.572 938.581C690.865 941.236 685.158 943.891 679.45 946.546C678.367 947.971 677.592 949.986 676.155 950.734C613.914 983.131 547.632 1000.2 477.52 1003.08C433.415 1004.88 390.571 995.282 347.281 989.638Z" fill="#A54A5E"/>
<path d="M103.937 276.663C83.097 312.94 57.6434 345.99 42.1526 386.057C18.3802 446.946 7.23286 512.012 9.38449 577.32C9.49538 580.977 8.27441 584.674 7.67334 588.352C8.24715 591.928 8.82084 595.505 9.39451 599.081L9.53809 599.713L9.6353 600.134C9.86446 600.294 10.2984 600.472 10.2858 600.611C10.2045 601.095 10.0763 601.569 9.90305 602.028C14.2059 620.474 18.5081 638.917 22.8097 657.357C23.4747 659.882 24.141 662.413 24.8086 664.949L25.6742 667.598L28.1836 675.649L28.0952 675.404C35.9578 692.771 43.8204 710.137 51.6828 727.503C52.2826 725.433 52.8825 723.364 53.4823 721.294C54.9027 721.713 57.006 721.708 57.5928 722.646C58.6258 724.297 56.0085 730.33 60.7913 726.665C63.5518 724.55 63.3035 718.071 63.6357 713.501C63.7572 711.83 61.6432 709.997 60.549 708.238C72.1389 705.639 84.6456 699.966 88.9964 718.366C89.9057 722.212 90.8823 727.243 96.502 728.009C93.0191 720.018 89.5362 712.027 86.0533 704.036C85.4166 702.466 84.7798 700.897 84.1431 699.327C83.6167 697.984 83.0898 696.64 82.5624 695.295C82.013 694.996 81.4645 694.699 80.9169 694.404C71.2733 678.529 66.0611 660.899 60.7507 643.331C59.3538 638.71 58.7379 633.854 57.7633 629.106C59.4971 633.093 61.0536 637.168 63.0042 641.047C66.3199 647.64 69.8836 654.109 73.343 660.63C73.4935 659.393 73.4471 658.139 73.2056 656.916C55.6698 610.693 56.6051 562.373 59.1282 514.414C60.4371 489.534 66.0173 464.487 72.7555 440.373C82.8939 404.093 97.8479 369.397 119.251 338.134C128.387 324.789 133.527 307.528 150.879 300.957C177.261 265.185 210.121 234.653 247.761 210.939C243.748 203.602 239.058 204.367 233.979 209.792C236.401 201.154 230.046 194.589 228.672 186.974C226.926 177.3 238.03 172.352 239.629 163.482C237.035 164.293 234.505 165.293 232.059 166.474C182.229 194.955 141.947 234.498 103.937 276.663ZM47.4701 476.88C46.5633 478.898 44.3902 483.735 42.2171 488.572C40.1412 484.975 36.8048 481.541 36.3099 477.738C35.6977 473.036 39.6722 469.675 44.3136 468.887C47.1305 468.409 48.8261 470.634 47.4701 476.88ZM74.9499 699.046C74.7544 698.561 74.2927 697.963 74.4375 697.622C74.5394 697.368 74.7378 697.165 74.9895 697.057C75.2411 696.948 75.5255 696.944 75.7805 697.044C76.0354 697.145 76.2401 697.342 76.3498 697.592C76.4595 697.843 76.4653 698.126 76.3659 698.381C76.2295 698.732 75.4862 698.849 74.9499 699.046Z" fill="#342B2B"/>
<path d="M96.502 728.009C90.8823 727.243 89.9057 722.212 88.9965 718.366C84.6457 699.966 72.1389 705.639 60.549 708.238C61.6432 709.997 63.7572 711.829 63.6358 713.501C63.3036 718.071 63.552 724.549 60.7914 726.665C56.0087 730.33 58.6258 724.297 57.5929 722.645C57.0061 721.707 54.9028 721.713 53.4824 721.294C52.8826 723.364 52.2837 725.433 51.6859 727.502C52.0212 728.39 52.3546 729.28 52.6859 730.171C56.9664 730.559 56.6276 733.421 56.047 736.413L83.9791 785.169L86.3975 788.536L86.4882 788.678C87.1705 789.747 87.8528 790.815 88.535 791.884L88.7939 792.287C93.7015 792.523 94.4937 795.696 94.1151 799.705C95.7132 801.794 97.3113 803.883 98.9095 805.973C102.594 806.186 103.97 807.991 102.785 811.563L103.062 811.91C106.394 811.036 107.582 812.129 106.329 815.457L106.783 815.81L107.97 817.312C107.939 817.401 107.928 817.495 107.936 817.588C107.944 817.681 107.971 817.772 108.016 817.854C108.06 817.936 108.122 818.009 108.196 818.066C108.27 818.124 108.355 818.165 108.446 818.189C121.333 815.81 117.07 825.891 118.443 831.878C129.894 844.913 141.344 857.948 152.795 870.983L155.713 873.382C156.685 874.473 157.656 875.564 158.628 876.655L160.585 878.557L160.514 878.465L163.623 880.84C164.098 881.222 164.42 881.763 164.529 882.362C190.278 901.764 216.026 921.164 241.775 940.562C253.694 947.704 265.613 954.85 277.531 961.999L341.894 988.714C343.69 989.022 345.486 989.33 347.282 989.638C390.571 995.282 433.415 1004.88 477.519 1003.08C547.632 1000.2 613.914 983.131 676.154 950.734C677.592 949.986 678.367 947.971 679.449 946.546C575.657 984.058 471.015 987.859 365.728 953.497C337.438 944.264 308.987 934.799 284.929 916.183L285.015 916.28C278.574 916.337 273.944 912.953 269.937 908.384L270.154 908.58C268.765 907.689 267.376 906.797 265.987 905.906C215.59 877.738 174.626 838.798 138.234 794.636C132.695 800.231 126.933 805.483 118.849 807.158C117.595 808.416 116.341 809.674 115.087 810.933C114.872 811.059 114.656 811.184 114.441 811.31L115.101 810.947L118.887 807.195C112.142 798.952 117.548 792.185 121.495 785.18C122.633 783.16 126.478 780.615 120.972 779.068C117.415 778.07 112.49 780.992 110.53 775.432C114.583 774.542 118.637 773.652 122.69 772.762C121.5 771.023 120.31 769.285 119.12 767.547C112.784 766.049 105.523 765.658 105.684 756.383L105.64 756.339C104.835 747.653 94.8042 741.675 98.3707 731.706C97.7478 730.474 97.1249 729.241 96.502 728.009Z" fill="#342B2B"/>
<path d="M98.9094 805.973C97.3113 803.883 95.7136 801.795 94.1164 799.706C92.3432 797.234 90.569 794.761 88.7939 792.287L88.5366 791.887C87.8549 790.819 87.1721 789.75 86.4882 788.679L86.4 788.536C85.5946 787.413 84.7876 786.291 83.979 785.169C74.6683 768.917 65.3583 752.665 56.0491 736.412C54.9294 734.331 53.8083 732.251 52.6859 730.171C52.3535 729.281 52.0202 728.391 51.6858 727.502C43.8204 710.137 35.9568 692.771 28.0952 675.404C44.1615 739.788 76.5669 795.55 119.468 845.495C131.599 859.618 145.763 872.003 158.995 885.184C160.839 884.243 162.684 883.302 164.529 882.362C164.42 881.763 164.098 881.222 163.623 880.839C162.587 880.047 161.55 879.256 160.514 878.465L160.584 878.557C159.932 877.923 159.28 877.289 158.628 876.655C157.656 875.564 156.685 874.473 155.714 873.382C154.741 872.581 153.769 871.782 152.795 870.983C141.344 857.948 129.894 844.914 118.445 831.88C115.114 827.317 111.78 822.754 108.446 818.189C108.354 818.166 108.269 818.124 108.195 818.066C108.121 818.008 108.06 817.935 108.016 817.852C107.972 817.769 107.947 817.678 107.941 817.584C107.935 817.49 107.948 817.396 107.981 817.308C107.59 816.807 107.186 816.309 106.783 815.81C106.783 815.81 106.329 815.457 106.337 815.454C105.251 814.27 104.159 813.089 103.062 811.91C103.062 811.91 102.785 811.563 102.792 811.56C101.503 809.696 100.208 807.834 98.9094 805.973Z" fill="#F27502"/>
<path d="M164.529 882.362C162.684 883.303 160.839 884.243 158.995 885.184C180.901 906.21 205.481 923.641 231.639 938.944C231.639 938.938 231.312 939.012 231.312 939.012C232.509 939.505 233.706 939.998 234.902 940.491C235.906 941.074 236.91 941.657 237.913 942.24C238.052 942.48 238.269 942.666 238.528 942.766C238.787 942.867 239.072 942.875 239.337 942.791C240.15 942.05 240.963 941.309 241.775 940.568C216.026 921.166 190.278 901.764 164.529 882.362Z" fill="#E84311"/>
<path d="M262.662 956.639C267.615 958.425 272.571 960.211 277.527 961.998C265.613 954.852 253.695 947.707 241.775 940.562C240.963 941.309 240.15 942.052 239.337 942.792C239.45 943.374 239.555 943.957 239.65 944.543C242.941 946.376 246.232 948.21 249.523 950.043C250.63 950.622 251.737 951.201 252.844 951.78C254.845 952.846 256.846 953.913 258.847 954.978L262.662 956.639Z" fill="#F27502"/>
<path d="M28.1836 675.649C27.3472 672.965 26.5107 670.281 25.6743 667.597C26.5106 670.281 27.3471 672.965 28.1836 675.649Z" fill="#F27502"/>
<path d="M24.8085 664.949C24.1416 662.415 23.4754 659.885 22.8097 657.357C23.4772 659.893 24.1435 662.424 24.8085 664.949Z" fill="#F27502"/>
<path d="M237.913 942.24C236.91 941.657 235.906 941.074 234.902 940.491C235.906 941.074 236.91 941.657 237.913 942.24Z" fill="#F27502"/>
<path d="M231.312 939.012C231.312 939.012 231.638 938.938 231.638 938.945C231.638 938.951 231.312 939.012 231.312 939.012Z" fill="#F27502"/>
<path d="M9.90236 602.028C10.0751 601.569 10.2028 601.094 10.2839 600.611C10.2965 600.472 9.86379 600.293 9.63531 600.134L9.90236 602.028Z" fill="#A54A5E"/>
<path d="M9.53612 599.713L9.39354 599.081L8.98816 599.394L9.53612 599.713Z" fill="#A54A5E"/>
<path d="M706.982 931.68C893.429 819.189 968.307 569.205 871.339 368.545C792.624 205.656 659.821 118.268 478.077 106.71C478.565 107.314 479.016 107.917 479.467 108.521C535.312 115.756 588.821 135.382 636.063 165.958C673.032 189.668 706.885 217.278 732.287 253.832L732.173 253.765C733.139 255.046 734.106 256.327 735.073 257.608C738.808 261.452 742.542 265.295 746.275 269.137C747.676 270.376 749.079 271.617 750.484 272.861C792.533 317.654 826.196 367.559 844.744 426.678C845.193 427.94 845.641 429.202 846.09 430.464C852.166 446.355 856.91 462.588 858.768 479.562L858.709 479.539C859.81 485.241 860.912 490.943 862.013 496.645C862.173 498.401 862.334 500.157 862.494 501.914C863.645 514.588 864.795 527.262 865.946 539.936C865.994 543.698 866.041 547.46 866.089 551.223C867.194 577.993 865.658 604.524 858.875 630.581L859.004 630.606C856.652 650.194 851.499 669.346 843.701 687.477L842.734 690.891C836.374 710.573 828.426 729.536 817.23 747.033L814.691 751.304C788.915 799.608 752.352 841.354 707.827 873.316L707.856 873.283L686.853 888.398C686.827 888.556 686.77 888.707 686.684 888.843C686.597 888.978 686.484 889.095 686.352 889.185C686.219 889.276 686.069 889.338 685.911 889.369C685.753 889.4 685.591 889.399 685.434 889.365C659.888 907.441 631.73 921.527 601.928 931.137C601.894 931.254 601.834 931.362 601.752 931.453C601.67 931.543 601.569 931.614 601.455 931.66C601.342 931.706 601.22 931.725 601.097 931.717C600.975 931.708 600.857 931.673 600.751 931.612L594.247 933.631L588.814 935.426L549.093 946.296C548.923 946.527 548.672 946.684 548.39 946.737C548.108 946.79 547.817 946.735 547.574 946.582L522.665 951.142L518.911 951.598C476.562 958.461 433.304 957.42 391.337 948.526L390.721 948.662C387.329 948.202 383.914 947.868 380.547 947.264C347.246 941.286 316.437 927.662 284.93 916.184C308.987 934.8 337.438 944.264 365.728 953.497C471.015 987.859 575.657 984.058 679.449 946.547C685.157 943.891 690.864 941.236 696.569 938.582C700.038 936.281 703.509 933.981 706.982 931.68Z" fill="#F27502"/>
<path d="M424.781 105.461C304.099 105.732 205.257 153.096 126.303 243.254C122.193 247.946 118.54 253.036 114.68 257.931C113.589 258.427 112.494 258.933 111.399 259.44L111.243 259.636C110.441 260.768 109.638 261.901 108.835 263.034C107.202 267.575 105.568 272.118 103.936 276.661C141.947 234.498 182.229 194.955 232.059 166.474C234.505 165.293 237.035 164.293 239.629 163.482C252.195 157.187 264.762 150.892 277.328 144.597C295.228 135.28 314.264 128.318 333.959 123.887C335.682 123.802 337.406 123.717 339.129 123.633C342.467 122.027 345.805 120.421 349.143 118.816C358.728 117.299 368.341 115.939 377.892 114.229C393.543 111.426 409.154 108.395 424.781 105.461Z" fill="#54669C"/>
<path d="M706.982 931.679C703.51 933.98 700.039 936.281 696.569 938.582C699.95 937.315 703.327 936.049 706.698 934.786C706.787 933.753 706.885 932.716 706.982 931.679Z" fill="#FFB005"/>
<path d="M111.399 259.44C112.494 258.934 113.589 258.427 114.68 257.931C114.31 256.885 113.945 255.828 113.573 254.783C112.844 256.343 112.119 257.895 111.399 259.44Z" fill="#759F53"/>
<path d="M108.835 263.034C109.638 261.901 110.441 260.769 111.243 259.636C110.441 260.769 109.638 261.901 108.835 263.034Z" fill="#759F53"/>
<path d="M479.981 827.845C338.818 843.912 225.832 795.334 145.65 678.08C70.0094 567.467 72.0851 418.271 147.186 307.413C148.573 305.366 149.656 303.113 150.88 300.956C133.527 307.528 128.387 324.789 119.251 338.134C97.8479 369.397 82.8939 404.092 72.7555 440.373C66.0173 464.486 60.4371 489.534 59.1283 514.413C56.6052 562.373 55.6699 610.693 73.2056 656.916C73.447 658.139 73.4936 659.392 73.3437 660.629C73.3939 662.439 73.4437 664.249 73.493 666.06C74.9972 668.673 76.5014 671.287 78.0056 673.9C93.7802 704.752 114.377 732.291 136.586 758.722C138.02 760.259 139.455 761.796 140.89 763.333C156.961 777.467 173.031 791.602 189.102 805.736C190.61 806.866 192.119 807.996 193.627 809.126C193.889 809.716 194.151 810.307 194.413 810.898L194.394 810.885L210.264 820.813L210.505 820.961L213.284 823.976C215.151 825.166 217.017 826.356 218.883 827.547L228.973 833.566C234.443 836.62 239.912 839.673 245.382 842.727L255.678 848.157L271.976 855.338C273.869 856.175 275.762 857.013 277.655 857.85L285.101 860.715L303.792 867.593L309.464 869.44L311.251 869.861L315.087 871.252L356.638 881.103L396.249 886.423L405.689 886.95L413.247 887.405L443.472 887.375L450.965 886.954L456.642 886.665L490.646 882.834L492.468 882.622L505.607 880.329L541.551 871.286L550.629 868.31L586.843 854.497C588.618 853.739 590.394 852.98 592.169 852.221L605.556 845.717C606.762 845.06 607.968 844.404 609.174 843.748L617.032 839.476L617.57 838.903L618.357 838.918C620.421 837.711 622.485 836.503 624.549 835.296C625.594 834.682 626.64 834.068 627.685 833.455L643.863 823.376C646.46 821.64 649.058 819.906 651.656 818.171C652.624 817.463 653.592 816.755 654.561 816.048L654.412 816.059C655.81 815.056 657.208 814.053 658.606 813.051C659.715 812.302 660.825 811.553 661.935 810.804L664.175 808.981C666.005 807.591 667.835 806.201 669.666 804.81L671.747 803.138C674.776 800.677 677.804 798.215 680.833 795.753C694.804 782.04 708.775 768.327 722.746 754.614L728.611 747.769L728.935 747.216C732.049 743.342 735.164 739.468 738.279 735.594C738.735 735.054 739.192 734.514 739.648 733.974C740.632 732.644 741.616 731.314 742.599 729.984C744.086 727.966 745.572 725.948 747.059 723.93C748.188 722.479 749.318 721.028 750.447 719.578C751.155 718.533 751.863 717.488 752.571 716.443L752.49 716.549C756.802 709.647 761.115 702.746 765.428 695.844C766.826 693.402 768.223 690.96 769.621 688.518C770.978 686.045 772.335 683.573 773.692 681.101C773.624 680.414 773.555 679.729 773.486 679.043C768.795 678.204 767.957 682.37 766.077 684.93C698.567 776.847 607.71 823.832 493.507 825.886L479.981 827.845Z" fill="#54669C"/>
<path d="M247.761 210.939C250.085 209.568 252.408 208.197 254.732 206.826C255.893 191.891 271.123 193.106 279.157 186.038C291.357 175.307 283.651 162.504 285.055 150.655C285.916 143.397 279.314 147.291 277.328 144.596C264.761 150.892 252.195 157.187 239.628 163.482C238.03 172.352 226.927 177.3 228.672 186.973C230.046 194.588 236.401 201.154 233.979 209.792C239.058 204.367 243.748 203.602 247.761 210.939Z" fill="#342B2B"/>
<path d="M81.3392 690.972C79.4189 685.604 77.4988 680.236 75.5788 674.868C74.8838 671.932 74.1885 668.996 73.493 666.059C73.4434 664.249 73.3937 662.439 73.3436 660.629C69.8835 654.108 66.3198 647.639 63.0042 641.046C61.0536 637.168 59.4971 633.092 57.7633 629.105C58.7379 633.853 59.3538 638.709 60.7507 643.33C66.0611 660.898 71.2733 678.529 80.9172 694.403C81.0581 693.259 81.1987 692.115 81.3392 690.972Z" fill="#E84311"/>
<path d="M47.4701 476.879C48.8261 470.634 47.1305 468.409 44.3136 468.887C39.6722 469.675 35.6977 473.035 36.3099 477.738C36.8049 481.54 40.1412 484.975 42.2172 488.572C44.3903 483.735 46.5633 478.898 47.4701 476.879Z" fill="#342B2B"/>
<path d="M74.9793 699.057C75.4862 698.849 76.2294 698.732 76.3659 698.381C76.4652 698.126 76.4595 697.843 76.3498 697.592C76.2401 697.342 76.0353 697.145 75.7804 697.044C75.5255 696.944 75.2411 696.948 74.9895 697.057C74.7378 697.165 74.5393 697.368 74.4375 697.622C74.2926 697.963 74.7544 698.561 74.9793 699.057Z" fill="#342B2B"/>
<path d="M86.0533 704.036C85.416 702.466 84.7791 700.896 84.1423 699.326C84.7799 700.897 85.4168 702.467 86.0533 704.036Z" fill="#FFB005"/>
<path d="M81.3392 690.972C81.1986 692.116 81.058 693.259 80.9172 694.403C81.465 694.7 82.013 694.996 82.5624 695.295C82.1557 693.857 81.7479 692.416 81.3392 690.972Z" fill="#FFB005"/>
<path d="M138.234 794.636C133.053 787.344 127.871 780.053 122.69 772.761C118.637 773.651 114.583 774.542 110.53 775.432C112.49 780.992 117.415 778.069 120.972 779.068C126.478 780.615 122.633 783.16 121.495 785.18C117.548 792.185 112.142 798.952 118.887 807.195L118.849 807.157C126.933 805.483 132.695 800.231 138.234 794.636Z" fill="#342B2B"/>
<path d="M119.12 767.547C112.204 755.6 105.287 743.653 98.371 731.706C94.8041 741.675 104.835 747.653 105.64 756.339C105.893 756.217 106.145 756.095 106.398 755.972L105.684 756.383C105.523 765.658 112.784 766.048 119.12 767.547Z" fill="#342B2B"/>
<path d="M108.446 818.189C111.78 822.753 115.113 827.317 118.445 831.88C117.07 825.892 121.333 815.81 108.446 818.189Z" fill="#342B2B"/>
<path d="M285.015 916.28C281.197 911.354 275.893 909.252 269.938 908.384C273.943 912.953 278.574 916.337 285.015 916.28Z" fill="#F27502"/>
<path d="M88.794 792.287C90.5687 794.761 92.3428 797.234 94.1165 799.706C94.4936 795.697 93.7015 792.524 88.794 792.287Z" fill="#342B2B"/>
<path d="M98.9095 805.973C100.206 807.834 101.5 809.697 102.792 811.56C103.97 807.991 102.594 806.186 98.9095 805.973Z" fill="#342B2B"/>
<path d="M52.6859 730.171C53.8077 732.251 54.9287 734.331 56.0491 736.412C56.6277 733.421 56.9664 730.559 52.6859 730.171Z" fill="#342B2B"/>
<path d="M115.087 810.933C116.341 809.674 117.595 808.416 118.849 807.158L118.887 807.195C117.625 808.446 116.363 809.697 115.101 810.947L115.087 810.933Z" fill="#342B2B"/>
<path d="M103.062 811.91C104.156 813.09 105.248 814.271 106.337 815.454C107.582 812.129 106.395 811.036 103.062 811.91Z" fill="#342B2B"/>
<path d="M270.154 908.58C268.765 907.689 267.376 906.797 265.987 905.906C267.376 906.797 268.765 907.689 270.154 908.58Z" fill="#F27502"/>
<path d="M83.9791 785.169C84.7869 786.291 85.5938 787.413 86.4 788.535C85.5914 787.413 84.7844 786.291 83.9791 785.169Z" fill="#342B2B"/>
<path d="M86.4882 788.678C87.1715 789.749 87.8544 790.818 88.5366 791.887C87.8527 790.815 87.1699 789.746 86.4882 788.678Z" fill="#342B2B"/>
<path d="M152.795 870.983C153.768 871.782 154.741 872.582 155.714 873.381C154.74 872.583 153.767 871.783 152.795 870.983Z" fill="#E84311"/>
<path d="M160.514 878.465C161.55 879.256 162.587 880.047 163.623 880.839C162.586 880.048 161.55 879.257 160.514 878.465Z" fill="#E84311"/>
<path d="M115.099 810.948L114.441 811.31C114.656 811.184 114.87 811.059 115.085 810.933L115.099 810.948Z" fill="#342B2B"/>
<path d="M106.783 815.81C107.186 816.308 107.59 816.806 107.981 817.308C107.574 816.812 107.179 816.311 106.783 815.81Z" fill="#342B2B"/>
<path d="M158.628 876.655C159.28 877.289 159.932 877.923 160.584 878.557C159.933 877.923 159.281 877.289 158.628 876.655Z" fill="#E84311"/>
<path d="M337.751 171.066C338.982 170.777 340.214 170.488 341.445 170.199C342.318 168.306 343.055 164.845 344.087 164.755C360.406 163.191 376.364 159.004 391.344 152.358C391.975 152.086 393.149 153.065 394.07 153.461L390.579 156.291C485.206 143.733 575.209 157.29 659.634 203.207C685.771 217.422 708.183 236.799 732.287 253.831C706.885 217.278 673.032 189.667 636.063 165.957C588.828 135.385 535.325 115.761 479.488 108.527C475.887 107.883 472.272 107.235 468.643 106.582C454.021 106.208 439.4 105.835 424.78 105.461C409.154 108.395 393.543 111.426 377.892 114.229C368.341 115.939 358.728 117.299 349.143 118.812C347.354 123.616 343.476 124.108 339.129 123.633C337.406 123.717 335.682 123.802 333.959 123.888C333.436 131.57 322.167 139.664 335.398 147.271C336.941 148.158 339.172 159.69 331.444 161.987C322.731 164.577 323.723 168.396 327.721 174.008C328.564 173.715 329.407 173.423 330.251 173.13C330.963 170.726 331.677 168.322 332.39 165.919C334.177 167.634 335.964 169.35 337.751 171.066Z" fill="#342B2B"/>
<path d="M468.643 106.582C472.265 107.233 475.88 107.881 479.488 108.527C479.016 107.917 478.565 107.314 478.077 106.71C474.909 106.668 471.776 106.625 468.643 106.582Z" fill="#54669C"/>
<path d="M732.287 253.832C708.183 236.799 685.771 217.423 659.634 203.207C575.209 157.29 485.206 143.733 390.579 156.289C390.535 157.995 390.491 159.703 390.447 161.412C419.058 159.303 447.811 160.113 476.257 163.828C481.046 164.883 485.841 165.94 490.643 166.998C499.518 166.646 508.51 165.186 517.249 166.107C610.117 175.903 687.852 214.334 748.462 286.463C756.087 295.537 759.736 308.541 772.066 313.606C764.08 300.123 756.094 286.641 748.108 273.159C747.498 271.819 746.888 270.48 746.278 269.14C742.543 265.296 738.807 261.452 735.072 257.607C734.105 256.326 733.139 255.045 732.173 253.765L732.287 253.832Z" fill="#54669C"/>
<path d="M748.108 273.159C748.902 273.062 749.696 272.964 750.488 272.864C749.08 271.618 747.675 270.376 746.275 269.136C746.888 270.48 747.499 271.821 748.108 273.159Z" fill="#FFB005"/>
<path d="M732.173 253.765C733.139 255.045 734.105 256.326 735.072 257.607C734.106 256.327 733.14 255.046 732.173 253.765Z" fill="#342B2B"/>
<path d="M327.721 174.008C323.723 168.396 322.731 164.577 331.444 161.987C339.172 159.69 336.941 148.158 335.398 147.271C322.167 139.664 333.436 131.57 333.959 123.888C314.264 128.319 295.228 135.28 277.328 144.597C279.314 147.291 285.916 143.397 285.055 150.655C283.651 162.504 291.357 175.307 279.157 186.038C271.123 193.106 255.893 191.891 254.732 206.826C259.351 204 263.969 201.173 268.586 198.344C268.378 197.86 268.171 197.377 267.967 196.896L268.81 198.143C288.447 190.098 308.084 182.053 327.721 174.008Z" fill="#342B2B"/>
<path d="M339.129 123.633C343.476 124.108 347.354 123.616 349.143 118.812C345.805 120.421 342.467 122.028 339.129 123.633Z" fill="#342B2B"/>
<path d="M490.642 166.997C485.844 165.94 481.049 164.884 476.257 163.828C449.712 169.232 422.441 172.36 396.72 180.413C248.062 226.954 157.65 359.727 164.64 519.205C165.104 519.232 165.569 519.155 166 518.98C166.13 498.278 168.02 477.903 177.269 458.9L177.172 458.895L177.272 455.186L179.183 449.555L179.184 449.521C202.378 380.271 246.095 328.55 311.535 295.384L311.377 295.456C312.55 294.8 313.723 294.144 314.896 293.488L320.177 289.872C392.884 216.124 538.557 205.427 635.051 266.014C681.518 295.19 715.074 335.313 740.215 383.231C739.408 379.108 739.32 374.675 737.689 370.907C690.129 261.057 607.456 193.431 490.642 166.997Z" fill="#759F53"/>
<path d="M410.858 813.53C412.223 813.875 413.589 814.221 414.956 814.566C422.373 814.194 429.786 813.54 437.203 813.491C514.72 812.982 580.928 785.848 635.056 730.154C633.748 729.61 632.444 729.066 631.144 728.522C554.227 770.402 474.591 776.556 393.17 744.067C368.716 734.31 343.809 723.414 326.427 701.707L326.514 701.782C322.064 702.383 319.393 700.631 318.875 696.034L319 696.131L314.841 692.523L314.98 692.657C314.18 692.041 313.38 691.425 312.581 690.81L312 690.414C311.159 689.659 310.318 688.904 309.477 688.149C289.895 669.515 273.103 648.769 261.003 624.47C260.078 622.674 259.153 620.878 258.228 619.083L258.298 619.239C254.57 618.235 254.355 615.758 255.542 612.694L255.723 612.618C247.464 606.74 247.048 596.43 242.118 588.67C238.621 586.866 237.703 583.938 238.446 580.287C237.161 575.489 235.876 570.691 234.589 565.894C233.935 584.79 233.136 603.683 232.793 622.583C232.742 625.406 235.867 629.189 230.773 629.672C216.894 630.987 221.013 646.808 221.946 648.322C228.131 658.349 220.49 665.705 219.292 674.069L220.377 675.584L222.264 678.151C222.165 678.327 222.132 678.532 222.172 678.729C222.211 678.926 222.32 679.103 222.479 679.227C223.1 679.918 223.721 680.609 224.342 681.3L224.256 681.355C226.531 681.526 229.324 681.374 226.414 684.788C242.379 710.663 263.982 731.439 286.96 750.892C315.66 775.189 349.171 791.405 383.013 807.007C390.352 808.73 397.691 810.453 405.029 812.175C406.971 812.626 408.914 813.078 410.858 813.53ZM240.03 614.393C239.822 612.815 239.727 611.224 239.746 609.633C239.806 609.067 240.475 608.566 240.87 608.036C241.122 609.138 241.291 610.257 241.377 611.385C241.385 611.968 240.881 612.559 240.03 614.393Z" fill="#342B2B"/>
<path d="M635.062 730.154C580.928 785.848 514.72 812.982 437.203 813.491C429.786 813.54 422.373 814.194 414.956 814.566C432.63 821.456 451.412 822.254 469.92 824.64C473.351 825.082 476.623 826.746 479.974 827.846C484.49 827.192 489.002 826.538 493.512 825.884C494.848 825.105 496.26 824.465 497.727 823.973C588.714 803.281 660.222 754.296 710.744 676.06C726.767 651.246 741.819 625.383 746.242 595.208C744.708 598.272 743.1 601.302 741.65 604.406C720.571 649.506 691.861 688.291 649.252 715.582C647.479 717.346 645.704 719.114 643.928 720.885C642.651 721.528 641.373 722.171 640.096 722.815L640.031 722.987C638.374 725.376 636.718 727.765 635.062 730.154Z" fill="#759F53"/>
<path d="M220.376 675.584C220.015 675.079 219.653 674.574 219.3 674.068C205.864 656.355 195.489 636.528 188.604 615.405C174.893 584.702 167.814 552.454 166 518.978C165.569 519.155 165.105 519.232 164.64 519.205C160.327 583.974 179.018 648.19 217.434 700.583C255.85 752.976 311.535 790.2 374.718 805.721C377.425 806.386 380.246 806.589 383.013 807.007C349.171 791.405 315.66 775.189 286.96 750.892C263.982 731.439 242.379 710.663 226.414 684.789C225.695 683.645 224.975 682.5 224.256 681.355L224.343 681.299C223.722 680.607 223.101 679.917 222.479 679.227C222.32 679.102 222.211 678.925 222.171 678.727C222.132 678.529 222.165 678.323 222.264 678.147C221.635 677.29 221.006 676.435 220.376 675.584Z" fill="#E84311"/>
<path d="M390.447 161.412C390.491 159.703 390.535 157.996 390.579 156.289C391.743 155.348 392.906 154.406 394.07 153.462C393.149 153.065 391.975 152.086 391.344 152.358C376.364 159.004 360.406 163.191 344.087 164.755C343.054 164.845 342.318 168.306 341.445 170.199C352.785 167.873 364.125 165.546 375.465 163.219C376.127 163.166 376.789 163.114 377.45 163.061C381.782 162.511 386.115 161.961 390.447 161.412Z" fill="#342B2B"/>
<path d="M337.751 171.066C335.964 169.35 334.177 167.635 332.39 165.919C331.677 168.323 330.964 170.726 330.251 173.13C332.751 172.442 335.251 171.754 337.751 171.066Z" fill="#342B2B"/>
<path d="M410.858 813.53C408.914 813.078 406.971 812.627 405.029 812.175C406.973 812.627 408.916 813.079 410.858 813.53Z" fill="#759F53"/>
<path d="M377.45 163.061C376.788 163.114 376.127 163.166 375.465 163.219L377.45 163.061Z" fill="#54669C"/>
<path d="M746.242 595.208C741.819 625.383 726.767 651.246 710.743 676.06C660.222 754.296 588.714 803.28 497.727 823.973C496.26 824.465 494.848 825.105 493.512 825.884C607.658 823.709 698.513 776.724 766.077 684.93C767.957 682.37 768.795 678.204 773.487 679.043C774.159 678.447 774.832 677.851 775.504 677.257C777.247 673.754 778.991 670.25 780.735 666.746L780.665 666.266L781.093 666.035C781.523 665.183 781.952 664.332 782.382 663.48L782.376 664.017L782.341 663.476L783.7 660.027C786.468 653.809 789.235 647.591 792.003 641.373C794.101 636.331 796.199 631.289 798.296 626.248C798.498 625.625 798.701 625.003 798.903 624.38C799.718 622.514 800.532 620.647 801.347 618.78C801.998 616.893 802.65 615.007 803.301 613.121C806.381 603.92 809.462 594.719 812.542 585.518C812.977 583.491 813.412 581.464 813.847 579.437C816.697 564.336 819.547 549.235 822.397 534.134C822.58 531.672 822.764 529.21 822.948 526.748C823.421 513.563 823.893 500.379 824.366 487.194C824.29 484.76 824.214 482.325 824.138 479.891C819.014 420.654 800.762 365.507 772.067 313.609C759.736 308.541 756.087 295.537 748.462 286.463C687.852 214.334 610.117 175.903 517.249 166.107C508.51 165.186 499.517 166.646 490.642 166.998C607.456 193.431 690.129 261.057 737.689 370.907C739.32 374.675 739.407 379.108 740.213 383.228C740.193 383.464 740.232 383.701 740.327 383.919C740.422 384.136 740.57 384.326 740.758 384.472C741.252 384.5 741.746 384.528 742.241 384.556C741.97 384.972 741.699 385.387 741.428 385.802C741.914 387.034 742.399 388.266 742.884 389.498L743.947 392.187C769.302 459.584 770.483 527.253 746.242 595.208Z" fill="#342B2B"/>
<path d="M73.493 666.059C74.1884 668.996 74.8836 671.932 75.5788 674.868C76.393 674.553 77.2075 674.238 78.0138 673.912C76.5014 671.287 74.9945 668.669 73.493 666.059Z" fill="#FFB005"/>
<path d="M189.102 805.736C189.798 806.733 190.494 807.73 191.189 808.727C191.484 808.728 191.773 808.81 192.023 808.966C192.273 809.122 192.474 809.345 192.603 809.609C192.956 809.472 193.298 809.311 193.627 809.125C192.119 807.996 190.61 806.866 189.102 805.736Z" fill="#759F53"/>
<path d="M210.264 820.813L210.224 821.21L210.51 820.965L210.264 820.813Z" fill="#759F53"/>
<path d="M105.684 756.383L106.396 755.972C106.144 756.095 105.892 756.217 105.64 756.339L105.684 756.383Z" fill="#342B2B"/>
<path d="M268.808 198.143L267.967 196.896C268.171 197.378 268.377 197.861 268.585 198.344L268.808 198.143Z" fill="#342B2B"/>
<path d="M465.98 266.767C420.129 260.936 376.033 267.842 333.328 284.915C328.973 286.657 324.552 288.235 320.169 289.88C318.417 291.077 316.66 292.279 314.898 293.487C313.725 294.143 312.551 294.799 311.377 295.456L311.534 295.384C298.801 310.613 285.154 325.182 273.52 341.205C246.795 378.013 232.826 419.977 226.414 464.657C226.241 469.062 226.068 473.467 225.894 477.872L224.812 480.309L224.911 483.426C225.673 511.203 228.185 538.775 234.592 565.892C235.877 570.691 237.16 575.49 238.442 580.291C239.664 583.087 240.89 585.88 242.118 588.67C247.048 596.429 247.464 606.74 255.722 612.616C249.581 593.851 243.775 574.961 242.577 555.129C239.271 500.399 252.319 450.96 290.696 409.921L290.582 410.203L291.958 408.684L296.659 401.094C300.578 383.646 309.528 367.724 322.408 355.289L322.43 355.27C325.029 351.695 327.628 348.12 330.226 344.545C365.755 301.739 411.678 276.98 465.98 266.767Z" fill="#E84311"/>
<path d="M226.414 464.657C232.826 419.977 246.795 378.013 273.52 341.205C285.154 325.182 298.801 310.613 311.534 295.384C246.094 328.55 202.378 380.271 179.184 449.521C182.911 450.115 183.763 453.003 182.627 455.625C181.942 457.204 179.064 457.837 177.172 458.895L177.269 458.9C184.258 472.91 198.553 464.478 208.677 469.016C215.428 472.041 217.967 456.095 226.414 464.657Z" fill="#342B2B"/>
<path d="M226.414 464.658C217.967 456.095 215.428 472.041 208.677 469.016C198.553 464.478 184.258 472.91 177.269 458.9C168.02 477.903 166.13 498.278 166 518.98C167.814 552.454 174.893 584.703 188.603 615.403C190.333 615.876 192.063 616.35 193.794 616.826C192.636 602.85 205.464 586.382 190.786 575.358C177.891 565.674 187.155 556.271 187.002 546.836C186.955 543.918 196.175 544.241 190.601 537.06C185.463 530.44 187.858 521.9 193.187 520.219C193.977 519.97 195.232 518.677 195.135 518.505C191.265 511.652 210.068 506.778 196.848 499.217C201.487 491.692 211.846 486.993 208.594 475.569C210.154 475.817 211.682 476.234 213.15 476.815C217.135 478.896 221 481.206 224.911 483.427C224.878 482.388 224.845 481.347 224.812 480.306C225.172 479.492 225.533 478.681 225.895 477.872C226.068 473.467 226.241 469.062 226.414 464.658Z" fill="#342B2B"/>
<path d="M177.172 458.895C179.064 457.837 181.942 457.204 182.627 455.625C183.763 453.003 182.911 450.115 179.184 449.521L179.184 449.555C178.547 451.432 177.91 453.309 177.272 455.186C177.239 456.422 177.205 457.659 177.172 458.895Z" fill="#342B2B"/>
<path d="M177.272 455.186C177.91 453.309 178.547 451.432 179.184 449.555C178.546 451.432 177.909 453.309 177.272 455.186Z" fill="#342B2B"/>
<path d="M311.377 295.457C312.551 294.8 313.725 294.143 314.898 293.487C313.723 294.144 312.549 294.801 311.377 295.457Z" fill="#342B2B"/>
<path d="M527.04 714.599C462.043 745.883 398.508 742.471 336.312 706.652C333.125 704.817 329.727 703.347 326.427 701.707C343.809 723.414 368.716 734.31 393.17 744.067C474.591 776.556 554.227 770.402 631.14 728.521C634.101 726.676 637.064 724.831 640.031 722.987L640.096 722.814C641.373 722.17 642.651 721.527 643.928 720.884C645.703 719.115 647.478 717.348 649.251 715.582C675.889 680.692 697.043 643.184 704.926 599.357C702.66 601.818 699.916 603.982 698.206 606.776C674.853 644.945 642.808 673.689 602.268 692.323C581.893 701.688 561.236 712.034 537.429 709.192C533.967 710.994 530.504 712.796 527.04 714.599Z" fill="#E84311"/>
<path d="M224.911 483.427C221 481.206 217.135 478.896 213.15 476.815C211.682 476.235 210.154 475.817 208.593 475.569C211.846 486.993 201.487 491.692 196.848 499.217C210.068 506.778 191.265 511.652 195.135 518.505C195.231 518.677 193.977 519.97 193.187 520.219C187.858 521.9 185.463 530.441 190.601 537.06C196.174 544.241 186.954 543.919 187.002 546.836C187.155 556.271 177.891 565.674 190.786 575.358C205.464 586.382 192.636 602.85 193.794 616.826C192.064 616.351 190.333 615.877 188.603 615.403C195.488 636.527 205.863 656.355 219.299 674.068C220.49 665.706 228.131 658.349 221.946 648.322C221.012 646.808 216.894 630.988 230.773 629.672C235.867 629.189 232.742 625.406 232.793 622.584C233.136 603.683 233.935 584.79 234.589 565.894C228.185 538.775 225.673 511.203 224.911 483.427Z" fill="#342B2B"/>
<path d="M640.031 722.987C637.066 724.831 634.102 726.676 631.14 728.521C632.446 729.066 633.748 729.61 635.056 730.154C636.718 727.765 638.376 725.376 640.031 722.987Z" fill="#342B2B"/>
<path d="M326.514 701.782C323.968 699.866 321.422 697.95 318.875 696.034C319.393 700.631 322.064 702.383 326.514 701.782Z" fill="#342B2B"/>
<path d="M242.118 588.67C240.891 585.879 239.666 583.086 238.442 580.291C237.703 583.939 238.621 586.866 242.118 588.67Z" fill="#342B2B"/>
<path d="M258.298 619.239C257.379 617.058 256.46 614.877 255.541 612.696C254.355 615.758 254.569 618.235 258.298 619.239Z" fill="#342B2B"/>
<path d="M240.03 614.393C240.881 612.559 241.385 611.968 241.377 611.385C241.291 610.257 241.122 609.138 240.869 608.036C240.475 608.566 239.806 609.067 239.745 609.633C239.727 611.225 239.822 612.815 240.03 614.393V614.393Z" fill="#342B2B"/>
<path d="M224.256 681.355C224.975 682.5 225.695 683.644 226.414 684.788C229.324 681.374 226.531 681.526 224.256 681.355Z" fill="#342B2B"/>
<path d="M319 696.13C317.614 694.929 316.228 693.726 314.842 692.524C316.227 693.725 317.613 694.928 319 696.13Z" fill="#E84311"/>
<path d="M261.003 624.469C260.079 622.675 259.154 620.879 258.229 619.084C259.153 620.878 260.078 622.673 261.003 624.469Z" fill="#E84311"/>
<path d="M314.98 692.657C314.184 692.043 313.385 691.428 312.585 690.812C313.38 691.425 314.179 692.04 314.98 692.657Z" fill="#E84311"/>
<path d="M312 690.414C311.16 689.66 310.32 688.905 309.479 688.15C310.318 688.904 311.158 689.658 312 690.414Z" fill="#E84311"/>
<path d="M222.479 679.227C223.101 679.917 223.722 680.608 224.343 681.299C223.721 680.609 223.1 679.918 222.479 679.227Z" fill="#342B2B"/>
<path d="M220.376 675.584C221.006 676.437 221.635 677.291 222.264 678.147C221.635 677.295 221.005 676.441 220.376 675.584Z" fill="#342B2B"/>
<path d="M643.928 720.884C642.65 721.527 641.373 722.17 640.096 722.814C641.373 722.171 642.651 721.528 643.928 720.884Z" fill="#342B2B"/>
<path d="M742.884 389.498C743.238 390.393 743.592 391.289 743.945 392.185C743.592 391.29 743.238 390.395 742.884 389.498Z" fill="#759F53"/>
<path d="M740.758 384.472L740.655 385.353L741.427 385.799C741.699 385.387 741.971 384.973 742.241 384.556C741.747 384.528 741.252 384.5 740.758 384.472Z" fill="#759F53"/>
<path d="M537.428 709.192C561.236 712.034 581.893 701.688 602.268 692.323C642.808 673.689 674.853 644.945 698.206 606.776C699.915 603.982 702.66 601.818 704.925 599.357C706.562 593.12 708.198 586.885 709.833 580.652C712.268 548.631 714.001 516.641 706.061 485.03C705.893 484.816 705.775 484.566 705.715 484.301C705.655 484.035 705.654 483.759 705.714 483.493C704.476 478.456 703.238 473.419 702.001 468.382C701.451 466.403 700.901 464.425 700.352 462.447C699.602 460.031 698.852 457.615 698.101 455.2L696.33 449.552L696.335 449.567L694.639 445.374C694.7 445.11 694.687 444.834 694.601 444.577C694.515 444.321 694.359 444.093 694.151 443.919C693.687 442.601 693.222 441.283 692.758 439.965C692.29 438.755 691.823 437.545 691.355 436.335C691.083 435.789 690.811 435.243 690.539 434.697L690.493 434.585C690.077 433.634 689.661 432.682 689.244 431.73C685.19 423.283 681.137 414.837 677.083 406.39C676.595 405.684 676.108 404.978 675.62 404.272L675.688 404.363C675.147 403.5 674.606 402.637 674.065 401.773C674.099 401.541 674.055 401.303 673.941 401.097C673.827 400.891 673.648 400.728 673.432 400.634C672.96 399.823 672.488 399.012 672.016 398.201C660.546 377.459 645.453 359.51 628.707 342.908C587.299 301.856 536.655 278.682 480.13 267.011C475.415 266.93 470.699 266.849 465.982 266.767C411.678 276.98 365.755 301.739 330.227 344.544C329.361 349.371 327.67 353.604 322.43 355.271L322.41 355.29C330.603 362.78 314.497 370.757 322.875 378.243C350.511 360.087 379.962 346.699 413.458 343.938C418.301 343.495 423.143 343.053 427.986 342.61C464.238 340.19 497.972 349.239 530.242 364.95C541.425 358.626 541.896 370.433 546.824 374.696L546.951 374.78C549.996 374.321 552.752 374.254 552.223 378.644L552.469 378.845C558.588 374.987 558.053 379.881 558.538 383.434C559.453 384.2 560.368 384.965 561.284 385.731C561.464 385.731 561.639 385.789 561.783 385.897C561.927 386.005 562.032 386.157 562.082 386.33C566.569 391.122 571.056 395.914 575.543 400.705L575.443 400.632C576.782 402.192 578.121 403.752 579.46 405.311C590.782 414.601 598.731 426.521 605.91 439.041C607.119 441.326 608.328 443.61 609.537 445.895L609.469 445.753L611.409 449.662L611.319 449.572C633.709 487.098 638.295 527.671 632.047 570.097C631.263 574.449 630.479 578.801 629.695 583.154C629.019 585.744 628.342 588.333 627.666 590.923C627.294 592.126 626.923 593.329 626.551 594.532L626.528 594.598C625.929 596.498 625.331 598.399 624.733 600.3C609.668 647.792 579.863 683.528 537.428 709.192ZM548.245 369.959C547.756 369.231 547.277 368.517 546.798 367.803C547.343 367.567 548.099 366.986 548.39 367.163C549.03 367.682 549.589 368.295 550.047 368.98C549.532 369.26 549.017 369.54 548.245 369.959Z" fill="#342B2B"/>
<path d="M480.13 267.011C536.655 278.681 587.3 301.855 628.707 342.908C645.453 359.51 660.546 377.459 672.016 398.202C672.488 399.013 672.96 399.824 673.432 400.634C673.648 400.728 673.827 400.891 673.941 401.097C674.056 401.303 674.099 401.541 674.064 401.774C674.605 402.637 675.146 403.5 675.688 404.363L675.62 404.272C676.108 404.978 676.595 405.684 677.083 406.389C681.137 414.836 685.19 423.284 689.244 431.732C689.66 432.684 690.076 433.635 690.493 434.585L690.54 434.697C690.812 435.243 691.084 435.789 691.355 436.335C691.823 437.545 692.29 438.754 692.757 439.963C693.222 441.281 693.686 442.599 694.152 443.919C694.36 444.093 694.515 444.321 694.601 444.578C694.687 444.834 694.7 445.11 694.639 445.374C695.204 446.772 695.77 448.17 696.336 449.567L696.33 449.552C696.92 451.434 697.511 453.317 698.102 455.2C698.852 457.615 699.601 460.031 700.351 462.446C700.9 464.424 701.45 466.403 702.001 468.382C703.238 473.419 704.476 478.456 705.714 483.493C705.898 483.614 706.236 483.732 706.239 483.857C706.218 484.253 706.158 484.646 706.061 485.03C714.001 516.641 712.268 548.631 709.833 580.652C729.851 545.465 733.479 507.006 729.603 468.031C717.513 346.446 610.211 256.803 488.203 265.281C485.473 265.66 482.775 266.239 480.13 267.011V267.011Z" fill="#FFB005"/>
<path d="M632.047 570.096C638.295 527.671 633.709 487.098 611.319 449.571C612.165 454.14 612.706 458.792 613.904 463.268C629.754 522.515 591.025 584.45 529.42 598.243C467.303 612.152 404.769 571.093 393.346 508.9C382.05 447.395 424.708 388.271 485.579 379.047C519.037 373.978 547.831 384.113 575.543 400.705C571.056 395.913 566.57 391.123 562.084 386.333L561.416 386.402L561.284 385.731C560.369 384.965 559.453 384.2 558.538 383.434C556.516 381.905 554.493 380.375 552.469 378.845L552.225 378.643C550.468 377.355 548.711 376.067 546.951 374.78L546.826 374.696C541.299 371.447 535.771 368.198 530.242 364.95C497.972 349.239 464.238 340.19 427.99 342.609C423.148 343.052 418.305 343.495 413.458 343.938C379.962 346.699 350.511 360.087 322.875 378.242C314.137 385.859 305.398 393.476 296.66 401.094C295.092 403.624 293.525 406.153 291.958 408.681C291.5 409.186 291.041 409.693 290.582 410.203L290.696 409.921C273.041 465.883 272.619 521.204 295.647 576.09C331.238 660.918 419.705 717.359 512.196 713.764C517.124 713.572 522.088 714.302 527.037 714.601C530.504 712.796 533.968 710.993 537.429 709.192C579.863 683.528 609.668 647.792 624.733 600.3C625.331 598.4 625.929 596.499 626.528 594.598L626.551 594.532C626.922 593.329 627.294 592.126 627.666 590.923C628.342 588.333 629.019 585.744 629.695 583.154C630.479 578.802 631.263 574.45 632.047 570.096Z" fill="#FFB005"/>
<path d="M296.66 401.094C305.398 393.477 314.137 385.859 322.875 378.242C314.497 370.757 330.603 362.78 322.41 355.29C309.529 367.724 300.577 383.646 296.66 401.094V401.094Z" fill="#342B2B"/>
<path d="M322.43 355.271C327.67 353.604 329.361 349.371 330.227 344.544C327.627 348.121 325.029 351.696 322.43 355.271Z" fill="#342B2B"/>
<path d="M225.895 477.872C225.533 478.682 225.172 479.493 224.812 480.306C225.173 479.497 225.534 478.686 225.895 477.872Z" fill="#342B2B"/>
<path d="M530.242 364.95C535.771 368.198 541.298 371.447 546.826 374.696C541.896 370.433 541.425 358.626 530.242 364.95Z" fill="#342B2B"/>
<path d="M632.047 570.096C631.263 574.449 630.479 578.802 629.695 583.154C630.479 578.801 631.263 574.448 632.047 570.096Z" fill="#F27502"/>
<path d="M552.469 378.845C554.493 380.375 556.516 381.904 558.538 383.434C558.053 379.881 558.588 374.986 552.469 378.845Z" fill="#342B2B"/>
<path d="M413.458 343.938C418.303 343.495 423.147 343.052 427.99 342.609C423.143 343.052 418.299 343.495 413.458 343.938Z" fill="#F27502"/>
<path d="M546.951 374.78C548.71 376.067 550.468 377.355 552.225 378.643C552.752 374.254 549.996 374.32 546.951 374.78Z" fill="#342B2B"/>
<path d="M548.245 369.959C549.017 369.54 549.532 369.26 550.047 368.98C549.589 368.295 549.03 367.682 548.39 367.163C548.099 366.986 547.343 367.567 546.798 367.803C547.277 368.517 547.756 369.231 548.245 369.959Z" fill="#342B2B"/>
<path d="M605.91 439.041C607.119 441.326 608.328 443.61 609.537 445.895C608.328 443.61 607.119 441.326 605.91 439.041Z" fill="#FFB005"/>
<path d="M575.443 400.632C576.782 402.192 578.121 403.751 579.46 405.311C578.121 403.751 576.782 402.192 575.443 400.632Z" fill="#FFB005"/>
<path d="M702.001 468.381C701.451 466.403 700.901 464.424 700.351 462.446C700.901 464.425 701.451 466.403 702.001 468.381Z" fill="#342B2B"/>
<path d="M626.528 594.598C625.929 596.499 625.331 598.399 624.733 600.3C625.331 598.399 625.93 596.498 626.528 594.598Z" fill="#F27502"/>
<path d="M698.102 455.2C697.511 453.317 696.92 451.434 696.33 449.551C696.92 451.434 697.511 453.317 698.102 455.2Z" fill="#342B2B"/>
<path d="M694.152 443.919C693.687 442.6 693.222 441.281 692.757 439.963C693.223 441.283 693.687 442.601 694.152 443.919Z" fill="#342B2B"/>
<path d="M609.469 445.752C610.116 447.055 610.763 448.358 611.409 449.661C610.762 448.358 610.116 447.055 609.469 445.752Z" fill="#FFB005"/>
<path d="M696.336 449.567C695.77 448.17 695.204 446.772 694.638 445.374C695.204 446.771 695.77 448.169 696.336 449.567Z" fill="#342B2B"/>
<path d="M627.666 590.922C627.294 592.126 626.923 593.329 626.551 594.532C626.923 593.328 627.294 592.125 627.666 590.922Z" fill="#F27502"/>
<path d="M691.353 436.335C691.082 435.789 690.811 435.243 690.54 434.697C690.811 435.243 691.082 435.789 691.353 436.335Z" fill="#342B2B"/>
<path d="M690.493 434.585C690.076 433.635 689.66 432.684 689.244 431.732C689.661 432.682 690.077 433.633 690.493 434.585Z" fill="#342B2B"/>
<path d="M677.083 406.389C676.595 405.684 676.108 404.978 675.62 404.272C676.108 404.977 676.595 405.683 677.083 406.389Z" fill="#342B2B"/>
<path d="M675.688 404.363C675.146 403.5 674.605 402.637 674.064 401.774C674.606 402.637 675.147 403.5 675.688 404.363Z" fill="#342B2B"/>
<path d="M673.432 400.633C672.96 399.823 672.488 399.012 672.016 398.202C672.488 399.012 672.96 399.822 673.432 400.633Z" fill="#342B2B"/>
<path d="M561.284 385.731L561.416 386.402L562.082 386.333C562.032 386.16 561.927 386.007 561.783 385.899C561.64 385.79 561.464 385.731 561.284 385.731Z" fill="#342B2B"/>
<path d="M706.06 485.03C706.157 484.646 706.216 484.253 706.237 483.857C706.234 483.732 705.898 483.614 705.713 483.493C705.654 483.759 705.655 484.035 705.715 484.301C705.775 484.566 705.893 484.815 706.06 485.03Z" fill="#342B2B"/>
</g>
<defs>
<clipPath id="clip0">
<rect width="1018" height="1018" fill="white"/>
</clipPath>
</defs>
</svg>
